<svg width="59" height="67" viewBox="0 0 59 67" fill="none" xmlns="http://www.w3.org/2000/svg">
<g id="fa-solid:fire-extinguisher" clip-path="url(#clip0_219_619)">
<path id="Vector" d="M56.8427 3.55222L35.0927 7.17722C33.6254 7.42178 33.7946 8.92123 33.7946 9.46498H26.2427C27.626 4.81825 24.1425 0.143555 19.2946 0.143555C14.1892 0.143555 10.7023 5.28018 12.5329 10.0091C5.79575 11.6988 2.77379 17.0278 0.874812 21.7754C0.23746 23.3687 1.01243 25.1769 2.60575 25.8143C4.20036 26.452 6.00794 25.6751 6.64452 24.0833C10.3691 14.7717 14.4998 15.6793 22.4017 15.6793V19.1846C17.0234 20.5909 13.0803 25.5588 13.0803 31.371V63.3221C13.0803 65.0382 14.4714 66.4293 16.1875 66.4293H34.8303C36.5464 66.4293 37.9375 65.0382 37.9375 63.3221V31.215C37.9375 25.4239 33.9764 20.5585 28.616 19.1787V15.6793H33.7946C33.7946 16.0643 33.5741 17.7139 35.0927 17.967L56.8427 21.592C57.7898 21.7498 58.6518 21.0197 58.6518 20.0596V5.08469C58.6518 4.12458 57.7898 3.3944 56.8427 3.55222ZM19.2946 9.46498C18.1525 9.46498 17.2232 8.53569 17.2232 7.39355C17.2232 6.25142 18.1525 5.32213 19.2946 5.32213C20.4367 5.32213 21.366 6.25142 21.366 7.39355C21.366 8.53569 20.4367 9.46498 19.2946 9.46498Z" fill="white"/>
</g>
<defs>
<clipPath id="clip0_219_619">
<rect width="58" height="66.2857" fill="white" transform="translate(0.651733 0.143066)"/>
</clipPath>
</defs>
</svg>
