<svg width="61" height="60" viewBox="0 0 61 60" fill="none" xmlns="http://www.w3.org/2000/svg">
<g id="streamline:fire-alarm-2-solid" clip-path="url(#clip0_219_609)">
<path id="Vector" fill-rule="evenodd" clip-rule="evenodd" d="M24.266 3.21428C24.266 2.3618 23.9274 1.54424 23.3246 0.941442C22.7218 0.338647 21.9042 0 21.0517 0C15.6564 0.00227266 10.4829 2.14714 6.66866 5.96299C2.85442 9.77884 0.71173 14.9533 0.711731 20.3486C0.711731 20.7707 0.794871 21.1886 0.956404 21.5786C1.11794 21.9686 1.3547 22.3229 1.65317 22.6214C1.95165 22.9199 2.30599 23.1566 2.69596 23.3182C3.08594 23.4797 3.50391 23.5629 3.92602 23.5629C4.34812 23.5629 4.7661 23.4797 5.15607 23.3182C5.54605 23.1566 5.90039 22.9199 6.19886 22.6214C6.49733 22.3229 6.7341 21.9686 6.89563 21.5786C7.05716 21.1886 7.1403 20.7707 7.1403 20.3486C7.1403 16.6582 8.60569 13.1189 11.2143 10.5087C13.823 7.89841 17.3614 6.43084 21.0517 6.42857C21.9042 6.42857 22.7218 6.08992 23.3246 5.48713C23.9274 4.88433 24.266 4.06677 24.266 3.21428ZM37.0375 3.21428C37.0375 2.3618 37.3761 1.54424 37.9789 0.941442C38.5817 0.338647 39.3993 0 40.2517 0C45.6478 0.00113649 50.8224 2.1455 54.6376 5.96147C58.4528 9.77745 60.596 14.9525 60.596 20.3486C60.596 21.201 60.2574 22.0186 59.6546 22.6214C59.0518 23.2242 58.2342 23.5629 57.3817 23.5629C56.5293 23.5629 55.7117 23.2242 55.1089 22.6214C54.5061 22.0186 54.1675 21.201 54.1675 20.3486C54.1675 16.6575 52.7015 13.1175 50.0919 10.5072C47.4823 7.89677 43.9428 6.42971 40.2517 6.42857C39.3993 6.42857 38.5817 6.08992 37.9789 5.48713C37.3761 4.88433 37.0375 4.06677 37.0375 3.21428ZM28.466 14.2286C27.876 13.969 27.2223 13.8903 26.5876 14.0024C25.9528 14.1146 25.3656 14.4125 24.9003 14.8586C24.1117 15.6171 23.4946 17.0914 24.3346 18.5229C25.6632 20.8329 26.5417 23.3657 26.936 25.9971C27.4246 29.3014 27.0132 32.67 25.4189 35.2757C24.5617 34.3586 23.8589 33.54 23.3703 32.61C23.1514 32.1841 22.8438 31.81 22.4683 31.5128C22.0927 31.2157 21.658 31.0023 21.1932 30.8871C19.8903 30.5786 18.6903 31.1143 17.7646 32.0014C14.4517 34.77 12.3432 39.0428 12.7546 43.53C12.9774 53.1343 21.4289 59.8886 30.386 60C39.6003 60.1114 47.9703 53.2543 48.0432 43.4228V43.41C48.0432 37.6414 46.3075 32.01 43.0675 27.24C39.5465 21.6366 34.5149 17.1413 28.5517 14.2714L28.5089 14.25L28.466 14.2286ZM40.2517 10.71C39.8296 10.71 39.4117 10.7931 39.0217 10.9547C38.6317 11.1162 38.2774 11.353 37.9789 11.6514C37.6804 11.9499 37.4437 12.3043 37.2821 12.6942C37.1206 13.0842 37.0375 13.5022 37.0375 13.9243C37.0375 14.3464 37.1206 14.7644 37.2821 15.1543C37.4437 15.5443 37.6804 15.8987 37.9789 16.1971C38.2774 16.4956 38.6317 16.7324 39.0217 16.8939C39.4117 17.0554 39.8296 17.1386 40.2517 17.1386C41.1042 17.1386 41.9218 17.4772 42.5246 18.08C43.1274 18.6828 43.466 19.5004 43.466 20.3529C43.466 21.2053 43.8047 22.0229 44.4075 22.6257C45.0103 23.2285 45.8278 23.5671 46.6803 23.5671C47.5328 23.5671 48.3504 23.2285 48.9532 22.6257C49.556 22.0229 49.8946 21.2053 49.8946 20.3529C49.8946 17.7954 48.8787 15.3427 47.0703 13.5343C45.2619 11.7259 42.8092 10.71 40.2517 10.71ZM14.2374 13.53C14.8439 12.9448 15.656 12.6212 16.4988 12.6289C17.3416 12.6366 18.1476 12.975 18.7433 13.5713C19.339 14.1675 19.6766 14.9738 19.6836 15.8166C19.6905 16.6594 19.3661 17.4712 18.7803 18.0771C18.1789 18.6801 17.8413 19.497 17.8417 20.3486C17.8417 21.201 17.5031 22.0186 16.9003 22.6214C16.2975 23.2242 15.4799 23.5629 14.6274 23.5629C13.775 23.5629 12.9574 23.2242 12.3546 22.6214C11.7518 22.0186 11.4132 21.201 11.4132 20.3486C11.4132 17.7943 12.4289 15.3343 14.2374 13.53Z" fill="white"/>
</g>
<defs>
<clipPath id="clip0_219_609">
<rect width="60" height="60" fill="white" transform="translate(0.651733)"/>
</clipPath>
</defs>
</svg>
