<svg width="66" height="66" viewBox="0 0 66 66" fill="none" xmlns="http://www.w3.org/2000/svg">
<g id="material-symbols:fire-truck">
<path id="Vector" d="M19.11 57.375C16.853 57.375 14.9346 56.5851 13.3548 55.0052C11.7749 53.4253 10.985 51.5069 10.985 49.25H8.27665C6.78707 49.25 5.51235 48.7201 4.45249 47.6602C3.39262 46.6003 2.86179 45.3247 2.85999 43.8333V30.2917H32.6517V19.4583C32.6517 17.9688 33.1825 16.694 34.2442 15.6342C35.3058 14.5743 36.5805 14.0435 38.0683 14.0417H43.485V11.3333C43.485 10.566 43.745 9.92319 44.265 9.405C44.785 8.88681 45.4278 8.62681 46.1933 8.625H48.9017C49.669 8.625 50.3127 8.885 50.8327 9.405C51.3527 9.925 51.6118 10.5678 51.61 11.3333V14.0417H53.0996C54.2732 14.0417 55.334 14.3802 56.2819 15.0573C57.2298 15.7344 57.8843 16.6372 58.2454 17.7656L62.1725 29.4115C62.2628 29.6823 62.3305 29.9649 62.3756 30.2592C62.4208 30.5535 62.4433 30.8577 62.4433 31.1719V49.25H54.3183C54.3183 51.5069 53.5284 53.4253 51.9485 55.0052C50.3687 56.5851 48.4503 57.375 46.1933 57.375C43.9364 57.375 42.018 56.5851 40.4381 55.0052C38.8583 53.4253 38.0683 51.5069 38.0683 49.25H27.235C27.235 51.5069 26.4451 53.4253 24.8652 55.0052C23.2853 56.5851 21.3669 57.375 19.11 57.375ZM19.11 51.9583C19.8773 51.9583 20.521 51.6983 21.041 51.1783C21.561 50.6583 21.8201 50.0156 21.8183 49.25C21.8165 48.4844 21.5565 47.8417 21.0383 47.3217C20.5201 46.8017 19.8773 46.5417 19.11 46.5417C18.3426 46.5417 17.6998 46.8017 17.1817 47.3217C16.6635 47.8417 16.4035 48.4844 16.4017 49.25C16.3998 50.0156 16.6598 50.6592 17.1817 51.181C17.7035 51.7028 18.3462 51.9619 19.11 51.9583ZM46.1933 51.9583C46.9607 51.9583 47.6044 51.6983 48.1244 51.1783C48.6444 50.6583 48.9035 50.0156 48.9017 49.25C48.8999 48.4844 48.6399 47.8417 48.1217 47.3217C47.6035 46.8017 46.9607 46.5417 46.1933 46.5417C45.426 46.5417 44.7832 46.8017 44.265 47.3217C43.7468 47.8417 43.4868 48.4844 43.485 49.25C43.4832 50.0156 43.7432 50.6592 44.265 51.181C44.7868 51.7028 45.4296 51.9619 46.1933 51.9583ZM38.0683 30.2917H56.7558L53.0996 19.4583H38.0683V30.2917ZM2.85999 27.5833V23.5208H5.56832V18.1042H2.85999V14.0417H29.9433V18.1042H27.235V23.5208H29.9433V27.5833H2.85999ZM9.63082 23.5208H14.3704V18.1042H9.63082V23.5208ZM18.4329 23.5208H23.1725V18.1042H18.4329V23.5208Z" fill="white"/>
</g>
</svg>
