<svg width="81" height="80" viewBox="0 0 81 80" fill="none" xmlns="http://www.w3.org/2000/svg">
<g id="mdi:flame">
<path id="Vector" d="M59.5184 37.3333C58.7517 36.3333 57.8184 35.4667 56.9517 34.6C54.7184 32.6 52.1851 31.1667 50.0517 29.0667C45.0851 24.2 43.9851 16.1667 47.1517 10C43.9851 10.7667 41.2184 12.5 38.8517 14.4C30.2184 21.3333 26.8184 33.5667 30.8851 44.0667C31.0184 44.4 31.1517 44.7333 31.1517 45.1667C31.1517 45.9 30.6517 46.5667 29.9851 46.8333C29.2184 47.1667 28.4184 46.9667 27.7851 46.4333C27.5959 46.2749 27.4377 46.0827 27.3184 45.8667C23.5517 41.1 22.9517 34.2667 25.4851 28.8C19.9184 33.3333 16.8851 41 17.3184 48.2333C17.5184 49.9 17.7184 51.5667 18.2851 53.2333C18.7517 55.2333 19.6517 57.2333 20.6517 59C24.2517 64.7667 30.4851 68.9 37.1851 69.7333C44.3184 70.6333 51.9518 69.3333 57.4184 64.4C63.5184 58.8667 65.6517 50 62.5184 42.4L62.0851 41.5333C61.3851 40 59.5184 37.3333 59.5184 37.3333ZM48.9851 58.3333C48.0517 59.1333 46.5184 60 45.3184 60.3333C41.5851 61.6667 37.8517 59.8 35.6517 57.6C39.6184 56.6667 41.9851 53.7333 42.6851 50.7667C43.2517 48.1 42.1851 45.9 41.7517 43.3333C41.3517 40.8667 41.4184 38.7667 42.3184 36.4667C42.9517 37.7333 43.6184 39 44.4184 40C46.9851 43.3333 51.0184 44.8 51.8851 49.3333C52.0184 49.8 52.0851 50.2667 52.0851 50.7667C52.1851 53.5 50.9851 56.5 48.9851 58.3333Z" fill="white"/>
</g>
</svg>
