<svg width="50" height="30" viewBox="0 0 50 30" fill="none" xmlns="http://www.w3.org/2000/svg">
<path d="M25.2657 1.65625L17.7032 7.78125C16.4454 8.79688 16.2032 10.625 17.1563 11.9297C18.1641 13.3203 20.1251 13.5938 21.4766 12.5391L29.2344 6.50781C29.7813 6.08594 30.5626 6.17969 30.9922 6.72656C31.4219 7.27344 31.3204 8.05469 30.7735 8.48438L29.1407 9.75L40.0001 19.75V5H39.9454L39.6407 4.80469L33.9688 1.17188C32.7735 0.40625 31.3751 0 29.9532 0C28.2501 0 26.5938 0.585937 25.2657 1.65625ZM27.0469 11.375L23.0079 14.5156C20.5469 16.4375 16.9766 15.9375 15.1329 13.4062C13.3985 11.0234 13.836 7.69531 16.1251 5.84375L22.6251 0.585938C21.7188 0.203125 20.7422 0.00781238 19.7501 0.00781238C18.2813 -1.19326e-07 16.8516 0.4375 15.6251 1.25L10.0001 5V22.5H12.2032L19.3438 29.0156C20.8751 30.4141 23.2422 30.3047 24.6407 28.7734C25.0704 28.2969 25.3594 27.7422 25.5079 27.1641L26.836 28.3828C28.3594 29.7812 30.7344 29.6797 32.1329 28.1562C32.4844 27.7734 32.7422 27.3281 32.9063 26.8672C34.4219 27.8828 36.4844 27.6719 37.7579 26.2812C39.1563 24.7578 39.0547 22.3828 37.5313 20.9844L27.0469 11.375ZM1.25006 5C0.562561 5 6.10352e-05 5.5625 6.10352e-05 6.25V22.5C6.10352e-05 23.8828 1.11725 25 2.50006 25H5.00006C6.38287 25 7.50006 23.8828 7.50006 22.5V5H1.25006ZM3.75006 20C4.08158 20 4.39952 20.1317 4.63394 20.3661C4.86836 20.6005 5.00006 20.9185 5.00006 21.25C5.00006 21.5815 4.86836 21.8995 4.63394 22.1339C4.39952 22.3683 4.08158 22.5 3.75006 22.5C3.41854 22.5 3.1006 22.3683 2.86618 22.1339C2.63176 21.8995 2.50006 21.5815 2.50006 21.25C2.50006 20.9185 2.63176 20.6005 2.86618 20.3661C3.1006 20.1317 3.41854 20 3.75006 20ZM42.5001 5V22.5C42.5001 23.8828 43.6172 25 45.0001 25H47.5001C48.8829 25 50.0001 23.8828 50.0001 22.5V6.25C50.0001 5.5625 49.4376 5 48.7501 5H42.5001ZM45.0001 21.25C45.0001 20.9185 45.1318 20.6005 45.3662 20.3661C45.6006 20.1317 45.9185 20 46.2501 20C46.5816 20 46.8995 20.1317 47.1339 20.3661C47.3684 20.6005 47.5001 20.9185 47.5001 21.25C47.5001 21.5815 47.3684 21.8995 47.1339 22.1339C46.8995 22.3683 46.5816 22.5 46.2501 22.5C45.9185 22.5 45.6006 22.3683 45.3662 22.1339C45.1318 21.8995 45.0001 21.5815 45.0001 21.25Z" fill="#ED1C24"/>
</svg>
