<svg width="50" height="50" viewBox="0 0 50 50" fill="none" xmlns="http://www.w3.org/2000/svg">
<path d="M25.0001 0C38.8063 0 50.0001 11.1937 50.0001 25C50.0001 38.8062 38.8063 50 25.0001 50C11.1938 50 6.10352e-05 38.8062 6.10352e-05 25C6.10352e-05 11.1937 11.1938 0 25.0001 0ZM25.0001 41.3042C27.1631 41.3387 29.3114 40.9426 31.3198 40.1387C33.3282 39.3349 35.1566 38.1395 36.6984 36.622C38.2403 35.1046 39.4648 33.2956 40.3007 31.3003C41.1365 29.305 41.567 27.1633 41.567 25C41.567 22.8367 41.1365 20.695 40.3007 18.6997C39.4648 16.7044 38.2403 14.8954 36.6984 13.378C35.1566 11.8605 33.3282 10.6651 31.3198 9.86126C29.3114 9.05742 27.1631 8.66125 25.0001 8.69583C20.7211 8.76424 16.6405 10.5121 13.6387 13.5623C10.6369 16.6124 8.95446 20.7205 8.95446 25C8.95446 29.2795 10.6369 33.3876 13.6387 36.4377C16.6405 39.4879 20.7211 41.2358 25.0001 41.3042ZM25.0001 33.0021C22.8783 33.0021 20.8435 32.1592 19.3432 30.6589C17.8429 29.1586 17.0001 27.1238 17.0001 25.0021C17.0001 22.8804 17.8429 20.8455 19.3432 19.3452C20.8435 17.8449 22.8783 17.0021 25.0001 17.0021C27.1218 17.0021 29.1566 17.8449 30.6569 19.3452C32.1572 20.8455 33.0001 22.8804 33.0001 25.0021C33.0001 27.1238 32.1572 29.1586 30.6569 30.6589C29.1566 32.1592 27.1218 33.0021 25.0001 33.0021Z" fill="#ED1C24"/>
</svg>
