<svg width="41" height="41" viewBox="0 0 41 41" fill="none" xmlns="http://www.w3.org/2000/svg">
<path d="M31.5001 1.68688C31.5006 1.37744 31.4093 1.0748 31.2376 0.817337C31.066 0.559871 30.8218 0.35917 30.5359 0.240677C30.25 0.122185 29.9354 0.0912379 29.632 0.151759C29.3285 0.21228 29.0499 0.361544 28.8313 0.580628L22.5813 6.83063C22.4363 6.976 22.3214 7.14853 22.2431 7.33835C22.1648 7.52816 22.1247 7.73155 22.1251 7.93688V16.665L19.8095 18.9775C19.3462 18.8546 18.861 18.8396 18.391 18.9338C17.9211 19.028 17.4791 19.2288 17.099 19.5207C16.7189 19.8126 16.4109 20.1879 16.1987 20.6177C15.9865 21.0474 15.8758 21.5201 15.8751 21.9994C15.8753 22.4441 15.9704 22.8837 16.1541 23.2887C16.3378 23.6937 16.6058 24.0549 16.9403 24.348C17.2747 24.6411 17.6679 24.8595 18.0935 24.9885C18.5191 25.1176 18.9673 25.1543 19.4082 25.0962C19.8492 25.0381 20.2726 24.8866 20.6503 24.6517C21.0279 24.4169 21.3511 24.1041 21.5982 23.7344C21.8454 23.3646 22.0107 22.9464 22.0832 22.5076C22.1558 22.0688 22.1338 21.6196 22.0188 21.19L24.3345 18.8744H33.0626C33.2679 18.8747 33.4713 18.8346 33.6611 18.7564C33.8509 18.6781 34.0235 18.5631 34.1688 18.4181L40.4188 12.1681C40.6379 11.9496 40.7872 11.6709 40.8477 11.3675C40.9082 11.064 40.8773 10.7494 40.7588 10.4636C40.6403 10.1777 40.4396 9.93347 40.1821 9.76181C39.9247 9.59016 39.622 9.49882 39.3126 9.49938H31.5001V1.68688ZM37.5751 19.4306C37.6917 20.2681 37.7501 21.1244 37.7501 21.9994C37.7496 25.8176 36.5835 29.5447 34.4076 32.6823C32.2316 35.8199 29.1497 38.2183 25.5738 39.557C21.9979 40.8957 18.0986 41.1107 14.3972 40.1734C10.6958 39.2361 7.36875 37.191 4.86101 34.3117C2.35327 31.4325 0.784345 27.8562 0.364029 24.0612C-0.056288 20.2661 0.69204 16.4332 2.50895 13.075C4.32585 9.71674 7.12473 6.99323 10.5313 5.26866C13.9379 3.54408 17.7898 2.90064 21.572 3.42438L20.3751 4.62125C19.9393 5.05648 19.5936 5.57333 19.3576 6.14224C19.1217 6.71115 19.0002 7.32098 19.0001 7.93688C16.2188 7.93688 13.4999 8.76163 11.1874 10.3068C8.8748 11.852 7.07238 14.0483 6.00802 16.6179C4.94366 19.1875 4.66518 22.015 5.20778 24.7428C5.75039 27.4707 7.08971 29.9764 9.05639 31.9431C11.0231 33.9097 13.5288 35.2491 16.2566 35.7917C18.9845 36.3343 21.812 36.0558 24.3816 34.9914C26.9512 33.9271 29.1474 32.1246 30.6926 29.8121C32.2378 27.4995 33.0626 24.7807 33.0626 21.9994C34.3054 21.9983 35.4968 21.5037 36.3751 20.6244L37.5751 19.4306ZM19.0001 11.0619C16.8368 11.0619 14.7222 11.7034 12.9235 12.9052C11.1249 14.107 9.72298 15.8152 8.89515 17.8138C8.06731 19.8123 7.85071 22.0115 8.27274 24.1332C8.69477 26.2548 9.73646 28.2037 11.2661 29.7334C12.7957 31.263 14.7446 32.3047 16.8663 32.7267C18.9879 33.1487 21.1871 32.9321 23.1857 32.1043C25.1842 31.2765 26.8925 29.8746 28.0943 28.0759C29.2961 26.2773 29.9376 24.1626 29.9376 21.9994H25.6282L25.2376 22.39C25.1625 23.5905 24.7425 24.7439 24.0281 25.7117C23.3137 26.6794 22.3352 27.4204 21.21 27.8458C20.0848 28.2712 18.8608 28.3629 17.6848 28.1098C16.5089 27.8567 15.4309 27.2697 14.5804 26.4191C13.7298 25.5685 13.1427 24.4906 12.8897 23.3146C12.6366 22.1386 12.7282 20.9146 13.1536 19.7895C13.579 18.6643 14.32 17.6858 15.2878 16.9714C16.2556 16.257 17.4089 15.837 18.6095 15.7619L19.0001 15.3713V11.0619Z" fill="#ED1C24"/>
</svg>
