<svg width="34" height="42" viewBox="0 0 34 42" fill="none" xmlns="http://www.w3.org/2000/svg">
<path d="M17 41.8332C12.1737 40.6179 8.18893 37.8484 5.04588 33.5248C1.90282 29.2012 0.331986 24.4012 0.333375 19.1248V6.4165L17 0.166504L33.6667 6.4165V19.1248C33.6667 21.3123 33.3799 23.4394 32.8063 25.5061C32.2327 27.5728 31.4084 29.5429 30.3334 31.4165L24.1875 25.2707C24.5695 24.611 24.8563 23.9255 25.048 23.2144C25.2396 22.5033 25.3348 21.7651 25.3334 20.9998C25.3334 18.7082 24.5174 16.7464 22.8855 15.1144C21.2535 13.4825 19.2917 12.6665 17 12.6665C14.7084 12.6665 12.7466 13.4825 11.1146 15.1144C9.48268 16.7464 8.66671 18.7082 8.66671 20.9998C8.66671 23.2915 9.48268 25.2533 11.1146 26.8853C12.7466 28.5172 14.7084 29.3332 17 29.3332C17.7292 29.3332 18.45 29.238 19.1625 29.0478C19.875 28.8575 20.5431 28.5707 21.1667 28.1873L27.8855 34.854C26.4271 36.5554 24.7862 38.0137 22.9625 39.229C21.1389 40.4443 19.1514 41.3123 17 41.8332ZM17 25.1665C15.8542 25.1665 14.8737 24.7589 14.0584 23.9436C13.2431 23.1283 12.8348 22.1471 12.8334 20.9998C12.832 19.8526 13.2403 18.8721 14.0584 18.0582C14.8764 17.2443 15.857 16.8359 17 16.8332C18.1431 16.8304 19.1243 17.2387 19.9438 18.0582C20.7632 18.8776 21.1709 19.8582 21.1667 20.9998C21.1625 22.1415 20.7549 23.1228 19.9438 23.9436C19.1327 24.7644 18.1514 25.1721 17 25.1665Z" fill="#ED1C24"/>
</svg>
