<svg width="50" height="44" viewBox="0 0 50 44" fill="none" xmlns="http://www.w3.org/2000/svg">
<path fill-rule="evenodd" clip-rule="evenodd" d="M36.7608 1.61793C37.4305 0.948392 38.3388 0.572266 39.2858 0.572266C40.2328 0.572266 41.141 0.948392 41.8108 1.61793L48.9536 8.76079C49.6042 9.43437 49.9642 10.3365 49.9561 11.2729C49.9479 12.2094 49.5723 13.1051 48.9101 13.7673C48.248 14.4295 47.3522 14.8051 46.4158 14.8132C45.4794 14.8213 44.5772 14.4614 43.9036 13.8108L39.2858 9.19293L35.4072 13.0715L40.0251 17.6894C40.6756 18.3629 41.0356 19.2651 41.0275 20.2015C41.0193 21.1379 40.6437 22.0337 39.9816 22.6959C39.3194 23.358 38.4236 23.7336 37.4872 23.7418C36.5508 23.7499 35.6487 23.3899 34.9751 22.7394L30.3572 18.1215L26.5929 21.8858C28.359 24.881 28.972 28.4175 28.3171 31.8323C27.6622 35.2472 25.7843 38.306 23.0355 40.4353C20.2866 42.5647 16.8555 43.6183 13.3854 43.3989C9.91522 43.1794 6.64423 41.7018 4.18555 39.2432C1.72687 36.7845 0.249313 33.5135 0.0298447 30.0433C-0.189624 26.5732 0.864064 23.1421 2.9934 20.3932C5.12273 17.6444 8.18151 15.7665 11.5964 15.1116C15.0112 14.4567 18.5477 15.0697 21.5429 16.8358L27.8179 10.5608L27.8322 10.5465L27.8465 10.5322L36.7608 1.61793ZM7.14293 29.1429C7.14293 27.2485 7.89548 25.4317 9.23503 24.0922C10.5746 22.7526 12.3914 22.0001 14.2858 22.0001C16.1802 22.0001 17.997 22.7526 19.3366 24.0922C20.6761 25.4317 21.4286 27.2485 21.4286 29.1429C21.4286 31.0373 20.6761 32.8541 19.3366 34.1937C17.997 35.5332 16.1802 36.2858 14.2858 36.2858C12.3914 36.2858 10.5746 35.5332 9.23503 34.1937C7.89548 32.8541 7.14293 31.0373 7.14293 29.1429Z" fill="#ED1C24"/>
</svg>
