<svg width="42" height="42" viewBox="0 0 42 42" fill="none" xmlns="http://www.w3.org/2000/svg">
<path d="M41.2292 38.2709L38.2709 41.2292C37.8806 41.6173 37.3525 41.8351 36.8021 41.8351C36.2518 41.8351 35.7237 41.6173 35.3334 41.2292L10.5834 16.5209C9.90597 16.7174 9.20533 16.8225 8.50006 16.8334C7.17361 16.8325 5.86655 16.5149 4.68754 15.9071C3.50854 15.2993 2.49166 14.4188 1.72144 13.3389C0.951228 12.259 0.449935 11.0108 0.259242 9.6981C0.068549 8.38542 0.193965 7.04619 0.625062 5.79175L5.91673 11.0834L7.0209 9.97925L9.97923 7.02091L11.0834 5.91675L5.79173 0.625081C7.04617 0.193984 8.38541 0.0685683 9.69808 0.259261C11.0108 0.449955 12.2589 0.951247 13.3389 1.72146C14.4188 2.49167 15.2993 3.50856 15.9071 4.68756C16.5149 5.86657 16.8324 7.17363 16.8334 8.50008C16.8225 9.20535 16.7174 9.90599 16.5209 10.5834L41.2292 35.3334C41.6172 35.7238 41.835 36.2518 41.835 36.8022C41.835 37.3525 41.6172 37.8806 41.2292 38.2709ZM0.770895 35.3334C0.382873 35.7238 0.165077 36.2518 0.165077 36.8022C0.165077 37.3525 0.382873 37.8806 0.770895 38.2709L3.72923 41.2292C4.11957 41.6173 4.64759 41.8351 5.19798 41.8351C5.74837 41.8351 6.27639 41.6173 6.66673 41.2292L18.0626 29.8542L12.1667 23.9584M37.6667 0.166748L29.3334 4.33341V8.50008L24.8126 13.0209L28.9792 17.1876L33.5001 12.6667H37.6667L41.8334 4.33341L37.6667 0.166748Z" fill="#ED1C24"/>
</svg>
