<svg width="46" height="32" viewBox="0 0 46 32" fill="none" xmlns="http://www.w3.org/2000/svg">
<path d="M23 9.75C21.3424 9.75 19.7527 10.4085 18.5806 11.5806C17.4085 12.7527 16.75 14.3424 16.75 16C16.75 17.6576 17.4085 19.2473 18.5806 20.4194C19.7527 21.5915 21.3424 22.25 23 22.25C24.6576 22.25 26.2474 21.5915 27.4195 20.4194C28.5916 19.2473 29.25 17.6576 29.25 16C29.25 14.3424 28.5916 12.7527 27.4195 11.5806C26.2474 10.4085 24.6576 9.75 23 9.75ZM23 26.4167C20.2374 26.4167 17.5878 25.3192 15.6343 23.3657C13.6808 21.4122 12.5834 18.7627 12.5834 16C12.5834 13.2373 13.6808 10.5878 15.6343 8.6343C17.5878 6.6808 20.2374 5.58333 23 5.58333C25.7627 5.58333 28.4122 6.6808 30.3657 8.6343C32.3192 10.5878 33.4167 13.2373 33.4167 16C33.4167 18.7627 32.3192 21.4122 30.3657 23.3657C28.4122 25.3192 25.7627 26.4167 23 26.4167ZM23 0.375C12.5834 0.375 3.68754 6.85417 0.083374 16C3.68754 25.1458 12.5834 31.625 23 31.625C33.4167 31.625 42.3125 25.1458 45.9167 16C42.3125 6.85417 33.4167 0.375 23 0.375Z" fill="#ED1C24"/>
</svg>
